PathFileType	4	(X/Y/Z)	S15T1V11.trc
DataRate	CameraRate	NumFrames	NumMarkers	Units	OrigDataRate	OrigDataStartFrame	OrigNumFrames
200	200	5	39	mm	200	25	99
Frame#	Time	LSHO			RSHO			LICST			RICST			LASIS			RASIS			LTROC			RTROC			SACR			LTH1			LTH2			LTH3			LTH4			RTH1			RTH2			RTH3			RTH4			LLEP			RLEP			LSK1			LSK2			LSK3			LSK4			RSK1			RSK2			RSK3			RSK4			LLME			RLME			LTOE			LHM5			LHEEL			RTOE			RHM5			RHEEL			RFT1			RFT2			LFT1			LFT2		
		X1	Y1	Z1	X2	Y2	Z2	X3	Y3	Z3	X4	Y4	Z4	X5	Y5	Z5	X6	Y6	Z6	X7	Y7	Z7	X8	Y8	Z8	X9	Y9	Z9	X10	Y10	Z10	X11	Y11	Z11	X12	Y12	Z12	X13	Y13	Z13	X14	Y14	Z14	X15	Y15	Z15	X16	Y16	Z16	X17	Y17	Z17	X18	Y18	Z18	X19	Y19	Z19	X20	Y20	Z20	X21	Y21	Z21	X22	Y22	Z22	X23	Y23	Z23	X24	Y24	Z24	X25	Y25	Z25	X26	Y26	Z26	X27	Y27	Z27	X28	Y28	Z28	X29	Y29	Z29	X30	Y30	Z30	X31	Y31	Z31	X32	Y32	Z32	X33	Y33	Z33	X34	Y34	Z34	X35	Y35	Z35	X36	Y36	Z36	X37	Y37	Z37	X38	Y38	Z38	X39	Y39	Z39

25	0.120000	98.235252	1430.612243	-417.272271	43.371380	1423.649018	-98.067749	119.298469	1023.206862	-416.297431	111.182645	1026.504942	-101.729902	158.617190	962.335358	-403.490369	166.307453	980.905877	-121.862449	15.577335	944.748051	-406.524369	60.563994	909.624407	-98.581439	7.136420	1021.582602	-263.871167	55.624871	696.399485	-433.375515	-24.093349	716.843627	-411.154934	25.744970	599.444903	-430.921381	-47.664068	616.122908	-405.260779	217.184376	723.491557	-92.068809	142.962977	695.915527	-104.062364	254.639914	633.352404	-108.681353	180.793505	603.947173	-119.656764	-65.566696	512.517072	-419.618479	253.376364	502.006577	-126.469779	-140.673502	434.493465	-414.023297	-176.315088	505.708215	-391.545025	-227.475338	387.839142	-389.664712	-257.792394	456.771626	-363.438406	314.084399	409.057552	-142.715568	238.464559	394.411426	-117.645487	335.498011	312.175078	-157.428561	254.820309	291.947155	-135.614810	-380.465712	323.727566	-339.360078	322.079178	118.138562	-172.789031	-347.142126	145.823922	-325.311549	-395.635574	196.492354	-367.777439	-406.006650	367.236001	-267.019789	499.324421	159.836118	-197.611981	454.163996	110.626191	-145.388147	277.599159	91.957437	-235.174119	303.760706	73.640607	-267.501528	288.128745	62.479813	-212.790790	-417.732634	345.053772	-236.431846	-437.807565	358.044300	-285.667087
26	0.125000	113.659227	1427.103406	-416.969026	60.392181	1420.040348	-96.954260	135.516628	1019.989130	-415.953521	127.245132	1023.250090	-101.075103	175.020090	959.364993	-402.828558	182.664169	978.017080	-121.165106	32.211663	940.951204	-406.468685	76.720538	906.432272	-98.374519	23.199970	1018.311041	-263.659105	75.148340	692.553031	-434.333574	-4.949495	711.765119	-412.290276	46.612011	595.144302	-432.594603	-27.097290	610.636855	-407.024941	233.541928	720.591898	-92.361275	159.332921	692.942796	-104.049296	271.006458	630.480084	-109.130416	197.182061	601.049853	-119.934306	-43.508587	507.875211	-421.792201	269.426131	498.973183	-127.227501	-120.015885	431.553583	-415.768737	-154.016049	503.623239	-393.494543	-207.726510	386.883526	-390.903936	-236.465972	456.541871	-364.890262	328.794148	405.309838	-143.921266	253.210005	391.727951	-118.425687	348.604553	308.245440	-158.901393	267.917734	289.185445	-136.543846	-361.907933	326.537831	-339.888686	331.577873	115.332194	-174.230245	-330.595162	148.848598	-327.113807	-378.666359	200.262349	-369.135753	-386.862844	369.971462	-267.031424	509.123689	153.500243	-198.762635	462.839613	106.112592	-146.509946	286.864653	90.437303	-236.759264	312.403891	71.289652	-268.812182	296.453715	61.078049	-214.160865	-398.684374	347.645552	-236.577390	-418.769038	361.185529	-285.553030
27	0.130000	129.034758	1423.361060	-416.707076	77.511991	1416.213374	-95.833489	151.622370	1016.535352	-415.592563	143.225348	1019.881595	-100.413633	191.314019	956.155538	-402.148243	198.909507	974.993979	-120.458954	48.758500	936.897391	-406.266886	92.816102	903.154135	-98.085983	39.133059	1014.870564	-263.401166	94.791734	688.550120	-435.303430	14.311250	706.465835	-413.478698	67.686983	590.690143	-434.285295	-6.321267	604.930754	-408.853599	249.910487	717.645880	-92.684895	175.717885	689.888456	-103.986284	287.408199	627.563715	-109.582033	213.617731	598.079997	-120.152168	-21.143914	503.034996	-423.966187	285.512976	495.868776	-127.946732	-98.940773	428.400753	-417.537525	-131.344612	501.257592	-395.463512	-187.484052	385.659225	-392.189885	-214.690129	455.983641	-366.374439	343.359349	401.411263	-145.142698	267.834611	389.027218	-119.129971	361.365776	304.157359	-160.410678	280.685562	286.410012	-137.403234	-342.741850	328.984883	-340.494042	340.325015	112.503176	-175.661673	-313.375293	151.503499	-329.025669	-361.027735	203.643158	-370.599992	-367.143925	372.328492	-267.098078	518.188660	146.826790	-200.035726	470.735709	101.433185	-147.695965	295.302442	88.992665	-238.290384	320.144855	68.949779	-270.067879	303.902363	59.761616	-215.455604	-379.058294	349.843830	-236.795096	-399.152363	363.939670	-285.500221
28	0.135000	144.355734	1419.408573	-416.484348	94.740312	1412.189403	-94.706390	167.603209	1012.865978	-415.220290	159.117416	1016.418224	-99.752398	207.488834	952.727118	-401.459601	215.034594	971.850332	-119.750469	65.208656	932.608158	-405.918795	108.838529	899.808688	-97.721004	54.926596	1011.281607	-263.100291	114.555550	684.425463	-436.273615	33.695071	700.981021	-414.709870	88.971634	586.123208	-435.976331	14.670677	599.046557	-410.730269	266.267378	714.662836	-93.021283	192.093508	686.765998	-103.869080	303.819761	624.610051	-110.015141	230.074055	595.048335	-120.302641	1.529260	498.039855	-426.118996	301.615118	492.703608	-128.616792	-77.442890	425.066227	-419.315134	-108.306233	498.642316	-397.433486	-166.745091	384.185723	-393.516402	-192.471817	455.116299	-367.881220	357.765480	397.384760	-146.364259	282.327182	386.325197	-119.752804	373.777335	299.944946	-161.940259	293.123777	283.647022	-138.187724	-322.969814	331.066349	-341.184833	348.350306	109.691106	-177.073325	-295.468804	153.773840	-331.052073	-342.707004	206.622998	-372.177308	-346.860768	374.305904	-267.231149	526.539012	139.918531	-201.417210	477.889806	96.662842	-148.936997	302.947942	87.643186	-239.757929	327.029612	66.656184	-271.262268	310.525381	58.549794	-216.668338	-358.867515	351.647862	-237.097647	-378.966308	366.305139	-285.525851
29	0.140000	159.615694	1415.272503	-416.298421	112.085833	1407.993235	-93.574560	183.447514	1009.004255	-414.843148	174.914823	1012.879913	-99.098300	223.535467	949.103058	-400.772946	231.030980	968.601699	-119.045745	81.554081	928.107648	-405.427839	124.774838	896.415223	-97.286622	70.572637	1007.566406	-262.761214	134.440696	680.215640	-437.231452	53.208740	695.347509	-415.971407	110.468313	581.486155	-437.648843	35.885943	593.028039	-412.635826	282.587764	711.651718	-93.352012	208.433241	683.589532	-103.694677	320.212733	621.625353	-110.409438	246.521333	591.965921	-120.379330	24.513781	492.935016	-428.227683	317.706075	489.487652	-129.227413	-55.517332	421.582536	-421.085080	-84.906792	495.810794	-399.384725	-145.508275	382.484026	-394.875398	-169.819654	453.961721	-369.399879	371.994073	393.253189	-147.569691	296.672119	383.637526	-120.289798	385.831897	295.642492	-163.472908	305.228930	280.922394	-138.892933	-302.597476	332.781527	-341.968190	355.682469	106.934817	-178.454661	-276.861745	155.650037	-333.194828	-323.691839	209.193216	-373.872674	-326.029446	375.902887	-267.441444	534.193956	132.880096	-202.889099	484.338518	91.875880	-150.220875	309.836591	86.406274	-241.152917	333.105680	64.442299	-272.389345	316.373827	57.459248	-217.793308	-338.130031	353.057335	-237.496883	-358.224248	368.279987	-285.646703
